<svg width="1021" height="996" viewBox="0 0 1021 996" fill="none" xmlns="http://www.w3.org/2000/svg">
<rect width="1021" height="996" fill="#F5F5F5"/>
<path opacity="0.5" fill-rule="evenodd" clip-rule="evenodd" d="M1020.45 872.513L547.486 987.934C429.965 1016.61 307.981 958.159 272.502 844.086L10 0H1020.45V872.513Z" fill="url(#paint0_linear_0_1)"/>
<g clip-path="url(#clip0_0_1)">
<path fill-rule="evenodd" clip-rule="evenodd" d="M635.389 316.512C635.889 316.783 636.57 316.978 637.374 317.369C639.988 323.223 640.977 324.944 640.465 325.525C640.044 326.003 640.094 325.745 639.846 326.924C639.537 328.53 645.582 335.471 646.51 337.676C647.37 339.528 647.448 341.615 646.726 343.518C645.315 347.263 643.128 350.715 640.291 353.677C637.892 356.186 635.247 357.781 632.953 357.297C630.122 356.722 630.604 354.339 631.024 352.001C631.18 351.167 632.88 349.319 632.749 348.497C631.995 343.812 628.311 339.719 625.609 335.661C623.292 333.653 619.385 331.54 617.22 329.214C614.13 325.854 613.512 322.308 617.387 320.264C618.624 319.608 621.715 316.345 623.334 316.471C626.407 316.702 631.526 314.405 635.389 316.512Z" fill="#202249"/>
<path fill-rule="evenodd" clip-rule="evenodd" d="M530.873 303.078C528.771 308.407 530.409 313.133 535.008 315.165L535.094 315.245L535.657 315.424C536.148 315.602 536.652 315.75 537.165 315.867C542.667 317.386 550.896 318.745 555.927 319.66C575.993 323.228 605.893 325.456 619.938 330.446C625.447 326.682 627.078 319.689 623.474 315.482C608.157 308.683 587.466 299.855 578.787 296.861C576.448 296.142 574.006 295.753 571.542 295.71C584.474 284.855 598.161 273.102 603.483 263.081C607.247 255.984 607.854 246.136 610.474 239.978C589.37 245.733 585.333 233.871 581.458 229.703C578.131 234.239 578.212 233.399 574.843 238.251C563.469 254.655 546.691 277.919 535.28 295.192C533.401 297.697 531.615 300.585 530.873 303.078Z" fill="url(#paint1_linear_0_1)"/>
<g style="mix-blend-mode:multiply" opacity="0.3">
<path fill-rule="evenodd" clip-rule="evenodd" d="M599.731 305.219C591.126 301.593 583.319 298.439 578.787 296.88C576.448 296.159 574.006 295.77 571.543 295.728C584.474 284.873 598.161 273.119 603.483 263.099C607.248 256.002 607.853 246.154 610.474 239.995C604.528 241.613 599.965 241.837 596.324 241.227L596.894 245.066C580.611 260.164 551 295.245 548.243 318.164C558.195 320.322 585.383 323.569 589.747 324.023C590.879 317.231 595.65 311.816 599.731 305.214V305.219ZM584.894 234.21C583.523 232.484 582.483 230.843 581.458 229.738C579.337 232.616 578.601 233.336 577.476 234.723L584.894 234.21Z" fill="#1E2353"/>
</g>
<path fill-rule="evenodd" clip-rule="evenodd" d="M597.105 392.579C600.066 396.407 592.073 415.602 590.126 419.631C588.414 423.2 588.957 425.388 593.019 425.444C596.221 425.491 601.303 421.266 604.4 418.503C610.204 413.323 610.538 408.046 612.225 405.8L614.204 405.225C615.651 404.465 619.929 399.262 620.163 397.294C619.553 395.468 618.816 393.682 617.956 391.947C614.798 386.513 614.106 388.89 609.92 385.569C605.192 388.786 608.56 390.064 597.105 392.579Z" fill="#202249"/>
<path fill-rule="evenodd" clip-rule="evenodd" d="M559.204 326.746C567.859 342.372 589.439 377.61 597.054 393.276C603.768 394.594 610.581 390.974 611.168 386.024C606.266 371.008 598.31 346.281 594.379 338.396C591.783 333.186 586.96 326.234 582.553 320.933C595.361 304.241 615.656 277.977 621.498 262.575C629.472 241.63 620.323 229.669 608.034 223.091C603.669 220.748 598.965 224.501 596.746 221.997C591.504 231.523 586.769 244.479 583.696 256.135C579.418 272.389 559.019 306.888 557.474 318.486C557.245 320.738 557.672 323.004 558.71 325.048C558.846 325.595 559.007 326.159 559.204 326.746Z" fill="url(#paint2_linear_0_1)"/>
<path opacity="0.3" fill-rule="evenodd" clip-rule="evenodd" d="M902.922 948.285L312.806 639.242C305.388 636.082 294.409 633.106 287.102 637.256L268.409 647.887C264.651 650.022 252.287 657.097 260.558 661.298C284.89 673.587 829.779 960.534 854.488 973.018C859.161 975.378 865.998 976.223 873.175 975.659C880.352 975.095 887.739 973.287 893.414 970.024L900.882 965.731C906.16 962.692 909.084 959.399 909.363 956.199C909.641 952.999 907.496 950.218 902.922 948.285Z" fill="#955CF1"/>
<path fill-rule="evenodd" clip-rule="evenodd" d="M380.491 135.684C376.424 133.531 371.652 132.731 367.189 134.303L357.199 137.934C353.577 155.403 871.427 957.016 876.057 961.459L884.971 958.328C890.826 956.181 893.892 950.511 894.751 944.997L970.007 466.731C970.007 466.731 970.007 466.691 970.007 466.679C971.244 458.621 968.635 450.258 963.887 443.541C961.329 439.921 957.965 436.599 953.836 434.516L380.491 135.684Z" fill="url(#paint3_linear_0_1)"/>
<path fill-rule="evenodd" clip-rule="evenodd" d="M943.996 438.056L370.655 139.201C359.812 133.606 349.483 138.976 347.572 151.155L272.316 629.457C270.4 641.637 277.614 656.06 288.457 661.655L861.798 960.488C872.641 966.082 882.995 960.723 884.911 948.544L960.162 470.271C962.078 458.068 954.839 443.679 943.996 438.056Z" fill="url(#paint4_linear_0_1)"/>
<path fill-rule="evenodd" clip-rule="evenodd" d="M943.998 438.055L370.655 139.201C359.813 133.606 349.483 138.976 347.574 151.155L345.033 167.271L957.597 486.548L960.163 470.23C962.079 458.068 954.84 443.678 943.998 438.055Z" fill="#4A9FF8"/>
<path fill-rule="evenodd" clip-rule="evenodd" d="M367.089 151.127C371.415 152.053 374.779 156.882 374.55 161.895C374.321 166.909 370.613 170.236 366.266 169.309C361.921 168.382 358.576 163.553 358.805 158.54C359.034 153.527 362.742 150.2 367.089 151.127Z" fill="#5858F0"/>
<path fill-rule="evenodd" clip-rule="evenodd" d="M386.894 161.717C391.221 162.644 394.577 167.473 394.349 172.48C394.121 177.488 390.411 180.82 386.066 179.894C381.719 178.967 378.375 174.138 378.604 169.13C378.833 164.123 382.542 160.79 386.894 161.717Z" fill="#5858F0"/>
<path fill-rule="evenodd" clip-rule="evenodd" d="M408.309 173.344C412.635 174.27 415.999 179.099 415.77 184.113C415.541 189.126 411.833 192.453 407.48 191.526C403.128 190.599 399.796 185.77 400.025 180.757C400.254 175.744 403.982 172.417 408.309 173.344Z" fill="#5858F0"/>
<path style="mix-blend-mode:multiply" opacity="0.5" fill-rule="evenodd" clip-rule="evenodd" d="M874.274 603.856L771.28 551.208C765.303 548.129 759.455 547.691 754.59 549.481C748.321 551.784 743.635 557.655 742.282 566.254L730.611 644.244C728.199 659.549 737.262 677.674 750.887 684.712L853.887 737.355C867.517 744.388 880.524 737.654 882.941 722.349L894.612 644.36C896.999 629.014 887.899 610.889 874.274 603.856Z" fill="url(#paint5_linear_0_1)"/>
<path style="mix-blend-mode:multiply" opacity="0.5" fill-rule="evenodd" clip-rule="evenodd" d="M723.501 329.566L949.324 432.122L943.346 437.808L921.673 578.864C919.46 593.334 907.634 599.746 895.29 593.173L683.912 480.642L665.553 442.527L723.501 329.566Z" fill="url(#paint6_linear_0_1)"/>
<path style="mix-blend-mode:multiply" opacity="0.5" fill-rule="evenodd" clip-rule="evenodd" d="M439.921 547.195L300.307 475.14L295.64 481.771L272.718 627.166L417.32 701.795C432.627 709.691 447.234 702.128 449.942 684.942L462.738 592.655C465.445 575.486 455.227 555.093 439.921 547.195Z" fill="url(#paint7_linear_0_1)"/>
<path fill-rule="evenodd" clip-rule="evenodd" d="M433.746 579.077L417.055 681.108L419.701 681.408L426.921 678.795C434.839 675.917 438.994 668.216 440.156 660.757L452.42 572.285C452.423 572.26 452.423 572.235 452.42 572.211C454.083 561.326 450.566 549.999 444.136 540.905C440.682 536.007 436.101 531.517 430.537 528.697L141.178 379.342C135.669 376.429 129.221 375.348 123.182 377.471L116.815 379.773C113.613 380.924 112.618 381.788 112.642 381.978C115.64 408.062 437.98 552.331 433.746 579.077Z" fill="#D0E7FF"/>
<path fill-rule="evenodd" clip-rule="evenodd" d="M423.279 531.362L133.901 382.006C127.466 378.691 121.173 378.219 115.912 380.13C109.168 382.577 104.118 388.931 102.665 398.185L90.3942 486.663C87.8041 503.142 97.5588 522.659 112.228 530.228L401.612 679.584C416.288 687.152 430.289 679.901 432.885 663.428L445.15 574.944C447.746 558.472 437.979 538.937 423.279 531.362Z" fill="url(#paint8_linear_0_1)"/>
<path opacity="0.5" fill-rule="evenodd" clip-rule="evenodd" d="M419.85 558.897L220.137 456.618C219.498 456.245 218.778 456.011 218.028 455.934C217.28 455.856 216.521 455.937 215.81 456.169C214.197 456.745 212.99 458.276 212.644 460.485L211.569 466.702C210.951 470.639 213.281 475.335 216.787 477.114L416.5 579.394C420.011 581.201 423.355 579.468 423.973 575.531L425.08 569.321C425.698 565.384 423.355 560.688 419.85 558.903V558.897ZM308.634 582.968C312.14 584.774 314.482 589.442 313.858 593.386L312.758 599.596C312.14 603.533 308.796 605.265 305.284 603.457L204.843 553.118C201.332 551.305 199.002 546.637 199.619 542.7L200.726 536.496C201.072 534.28 202.277 532.76 203.892 532.179C204.602 531.946 205.36 531.864 206.109 531.941C206.858 532.018 207.579 532.25 208.219 532.622L308.634 582.968ZM413.872 596.896C417.378 598.703 419.72 603.371 419.096 607.315L417.995 613.519C417.378 617.462 414.033 619.194 410.522 617.386L210.815 515.108C207.304 513.3 204.973 508.633 205.591 504.696L206.697 498.485C207.044 496.269 208.249 494.75 209.862 494.169C210.574 493.935 211.331 493.854 212.081 493.93C212.83 494.007 213.551 494.24 214.19 494.611L413.872 596.896Z" fill="#FFFCF1"/>
<path opacity="0.5" fill-rule="evenodd" clip-rule="evenodd" d="M156.49 454.811C147.044 449.935 137.023 456.508 137.128 469.199C137.172 475.79 140.176 482.565 144.905 486.818C146.054 487.855 147.341 488.752 148.732 489.489C158.158 494.352 168.13 487.762 168.062 475.099C168.062 468.503 165.058 461.694 160.348 457.458C159.192 456.409 157.896 455.503 156.49 454.764V454.811ZM147.385 495.48C145.516 494.495 143.79 493.291 142.247 491.9C135.873 486.202 131.88 477.068 131.782 468.203C131.67 451.143 145.115 442.303 157.807 448.825C159.708 449.819 161.461 451.045 163.018 452.468C169.372 458.155 173.366 467.283 173.41 476.153C173.49 493.166 160.062 502.019 147.385 495.48ZM190.626 480.976C192.833 482.127 194.149 485.114 193.555 487.692L191.243 497.691C190.656 500.234 188.388 501.38 186.174 500.24L185.044 499.664C184.673 499.452 184.259 499.315 183.828 499.258C183.398 499.202 182.959 499.228 182.54 499.336C182.121 499.444 181.73 499.631 181.391 499.886C181.053 500.14 180.775 500.457 180.574 500.815C179.945 501.796 179.258 502.744 178.515 503.654C177.365 505.058 177.18 507.308 178.058 509.311L178.676 510.67C179.813 513.254 179.134 516.195 177.173 517.185L169.397 521.093C168.906 521.331 168.359 521.445 167.806 521.427C167.254 521.409 166.716 521.258 166.245 520.99C165.09 520.336 164.201 519.341 163.722 518.164L163.105 516.84C162.636 515.679 161.766 514.697 160.632 514.049C160.067 513.749 159.427 513.596 158.777 513.605C157.677 513.605 156.558 513.57 155.458 513.478C153.677 513.317 152.193 514.491 151.748 516.443L151.452 517.749C150.834 520.293 148.59 521.439 146.377 520.299L137.722 515.827C135.509 514.675 134.198 511.688 134.786 509.138L135.089 507.838C135.295 506.821 135.249 505.775 134.956 504.777C134.662 503.781 134.129 502.858 133.395 502.082C132.461 501.127 131.59 500.137 130.724 499.118C130.28 498.562 129.719 498.095 129.074 497.748C128.612 497.486 128.084 497.338 127.543 497.318C127.002 497.299 126.466 497.409 125.983 497.638L124.969 498.122C124.48 498.361 123.932 498.479 123.378 498.462C122.826 498.444 122.288 498.294 121.816 498.024C120.658 497.374 119.769 496.378 119.294 495.198L114.676 484.947C113.545 482.368 114.225 479.422 116.179 478.438L117.211 477.919C118.732 477.148 119.511 475.208 119.189 473.045C118.979 471.669 118.837 470.293 118.744 468.912C118.602 466.783 117.39 464.762 115.696 463.887L114.565 463.312C112.352 462.161 111.042 459.185 111.629 456.629L113.941 446.637C114.559 444.053 116.803 442.913 119.016 444.053L120.147 444.629C120.518 444.842 120.931 444.981 121.362 445.039C121.793 445.097 122.233 445.07 122.652 444.962C123.072 444.854 123.463 444.666 123.801 444.411C124.139 444.155 124.416 443.837 124.617 443.478C125.245 442.496 125.933 441.549 126.675 440.639C127.818 439.264 128.004 437.019 127.121 435.005L126.502 433.652C125.377 431.045 126.051 428.127 128.017 427.113L135.787 423.2C136.278 422.962 136.826 422.848 137.378 422.866C137.931 422.884 138.468 423.035 138.939 423.303C140.098 423.954 140.987 424.95 141.462 426.129L142.08 427.482C142.547 428.642 143.418 429.622 144.553 430.267C145.115 430.572 145.757 430.727 146.407 430.716C147.518 430.688 148.628 430.723 149.734 430.82C151.507 431.005 152.985 429.836 153.442 427.879L153.745 426.573C154.363 424 156.613 422.854 158.82 424L167.475 428.472C169.682 429.623 170.999 432.605 170.399 435.183L170.102 436.484C169.894 437.493 169.937 438.532 170.228 439.523C170.518 440.513 171.048 441.429 171.777 442.2C172.711 443.155 173.632 444.162 174.466 445.204C174.909 445.762 175.47 446.229 176.117 446.574C176.579 446.834 177.107 446.981 177.647 447.001C178.188 447.02 178.724 446.911 179.208 446.683L180.234 446.165C180.725 445.929 181.273 445.815 181.825 445.834C182.378 445.853 182.915 446.005 183.387 446.275C184.544 446.923 185.434 447.917 185.908 449.095L190.415 459.345C191.54 461.953 190.867 464.877 188.907 465.89L187.874 466.402C186.353 467.174 185.574 469.113 185.903 471.255C186.107 472.624 186.261 474.006 186.353 475.381C186.49 477.517 187.702 479.531 189.395 480.406L190.626 480.976Z" fill="#FFFCF1"/>
<path style="mix-blend-mode:multiply" opacity="0.5" fill-rule="evenodd" clip-rule="evenodd" d="M407.275 209.795L344.84 181.684L320.187 325.307L317.016 345.487L381.924 378.11C393.205 383.928 403.974 378.358 405.971 365.683L424.077 243.31C426.092 230.642 418.556 215.62 407.275 209.795Z" fill="url(#paint9_linear_0_1)"/>
<path fill-rule="evenodd" clip-rule="evenodd" d="M399.653 243.955L380.188 361.027L382.227 361.257L387.791 359.249C393.873 357.021 397.063 351.116 397.966 345.377L414.039 238.735C414.041 238.716 414.041 238.696 414.039 238.677C415.311 230.308 412.611 221.594 407.664 214.607C405.007 210.837 401.483 207.383 397.212 205.213L277.775 144.778C273.54 142.539 268.576 141.71 263.934 143.339L259.038 145.118C256.566 145.981 255.812 146.672 255.83 146.816C258.142 166.863 402.905 223.384 399.653 243.955Z" fill="#D0E7FF"/>
<path fill-rule="evenodd" clip-rule="evenodd" d="M391.618 207.262L272.187 146.827C267.242 144.277 262.395 143.915 258.353 145.382C253.166 147.265 249.284 152.151 248.165 159.271L232.092 265.919C230.102 278.581 237.6 293.593 248.882 299.418L368.319 359.853C379.601 365.672 390.369 360.094 392.366 347.427L408.439 240.779C410.429 228.104 402.9 213.081 391.618 207.262Z" fill="url(#paint10_linear_0_1)"/>
<path fill-rule="evenodd" clip-rule="evenodd" d="M369.494 331.31L249.499 271.341C246.73 269.959 244.091 271.381 243.553 274.581C243.027 277.678 244.826 281.316 247.595 282.703L367.583 342.671C370.347 344.053 373.048 342.671 373.585 339.449C374.099 336.363 372.256 332.697 369.494 331.31ZM374.853 298.848C377.616 300.228 379.465 303.901 378.945 306.986C378.408 310.186 375.712 311.591 372.943 310.204L252.961 250.241C250.193 248.854 248.394 245.209 248.912 242.119C249.45 238.919 252.096 237.514 254.866 238.878L374.853 298.848ZM387.217 225.226L267.229 165.263C264.46 163.876 261.814 165.303 261.3 168.394L259.946 176.331C259.433 179.422 261.233 183.065 263.996 184.452L383.984 244.415C386.741 245.797 389.436 244.415 389.961 241.307L391.29 233.364C391.816 230.285 389.961 226.613 387.198 225.226H387.217ZM380.269 266.667C383.031 268.049 384.886 271.669 384.373 274.76C383.823 278.011 381.14 279.364 378.377 277.972L258.389 218.002C255.62 216.627 253.814 213.029 254.327 209.944C254.877 206.692 257.517 205.34 260.281 206.698L380.269 266.667Z" fill="#FFFCF1"/>
<path fill-rule="evenodd" clip-rule="evenodd" d="M868.847 640.185L854.629 721.716L856.842 721.969L862.882 719.787C869.503 717.358 872.977 710.941 873.947 704.701L884.456 634.481C884.459 634.46 884.459 634.439 884.456 634.418C885.841 625.318 882.904 615.844 877.526 608.241C874.633 604.149 870.832 600.391 866.158 598.03L773.432 550.643C768.827 548.209 763.437 547.306 758.38 549.078L753.058 551.012C750.381 551.95 749.552 552.699 749.571 552.854C752.105 574.68 872.358 617.819 868.847 640.185Z" fill="#D0E7FF"/>
<path fill-rule="evenodd" clip-rule="evenodd" d="M860.083 600.287L767.358 552.894C761.98 550.12 756.713 549.728 752.311 551.323C746.674 553.372 742.421 558.685 741.24 566.42L730.732 636.64C728.567 650.42 736.721 666.737 748.992 673.074L841.718 720.461C853.989 726.792 865.697 720.732 867.867 706.953L878.376 636.732C880.545 622.953 872.354 606.618 860.083 600.287Z" fill="white"/>
<path fill-rule="evenodd" clip-rule="evenodd" d="M819.695 605.156C820.381 606.397 820.649 607.801 820.462 609.186C820.086 610.947 819.521 612.669 818.773 614.325L798.992 665.412C798.374 667.14 797.756 668.418 797.348 669.35C797.193 669.743 796.955 670.104 796.648 670.41C796.342 670.717 795.972 670.963 795.562 671.134C794.875 671.416 793.929 671.22 792.712 670.518C789.751 668.791 788.44 666.397 788.811 663.473C789.21 661.662 789.755 659.883 790.443 658.149L810.144 607.033C811.158 604.321 812.048 602.566 812.795 601.755C813.544 600.943 814.756 601.029 816.424 601.985C817.813 602.733 818.94 603.838 819.67 605.168L819.695 605.156ZM824.967 618.394L823.157 632.605L852.347 664.124L819.626 660.267L817.809 674.536L864.889 677.989L866.435 665.902L824.955 618.423L824.967 618.394ZM742.676 607.556L784.155 655.081L785.974 640.813L756.92 609.093L789.485 613.209L791.339 598.819L744.247 595.32L742.676 607.556Z" fill="url(#paint11_linear_0_1)"/>
<path fill-rule="evenodd" clip-rule="evenodd" d="M504.804 608.362C506.467 597.749 515.152 593.064 524.19 597.909L658.568 668.464C667.6 673.31 673.583 685.862 671.915 696.477L654.043 809.743C652.374 820.351 643.683 825.036 634.651 820.196L500.273 749.642C491.229 744.79 485.257 732.243 486.926 721.629L504.804 608.362Z" fill="white"/>
<path fill-rule="evenodd" clip-rule="evenodd" d="M521.155 723.817L568.031 663.358L577.117 727.466L599.952 704.356L613.404 772.907L521.155 723.817Z" fill="url(#paint12_linear_0_1)"/>
<path fill-rule="evenodd" clip-rule="evenodd" d="M598.376 666.041C603.384 666.99 607.161 672.453 606.802 678.243C606.444 684.033 602.092 687.953 597.078 687.003C592.065 686.053 588.294 680.592 588.646 674.801C588.999 669.011 593.363 665.091 598.376 666.041Z" fill="#FFDB59"/>
<path opacity="0.2" fill-rule="evenodd" clip-rule="evenodd" d="M515.716 624.57C517.107 615.753 524.314 611.856 531.826 615.891L643.479 674.485C650.984 678.514 655.954 688.942 654.57 697.76L639.733 791.866C638.348 800.684 631.121 804.575 623.618 800.552L511.97 741.93C504.453 737.901 499.495 727.471 500.879 718.654L515.716 624.57Z" fill="url(#paint13_linear_0_1)"/>
<path fill-rule="evenodd" clip-rule="evenodd" d="M686.156 706.433C687.819 695.819 696.504 691.134 705.542 695.98L839.92 766.534C848.951 771.38 854.936 783.934 853.266 794.547L835.395 907.809C833.726 918.417 825.034 923.102 816.003 918.255L681.625 847.73C672.581 842.878 666.609 830.331 668.279 819.717L686.156 706.433Z" fill="white"/>
<path fill-rule="evenodd" clip-rule="evenodd" d="M702.509 821.889L749.385 761.431L758.473 825.537L781.308 802.429L794.76 870.98L702.509 821.889Z" fill="url(#paint14_linear_0_1)"/>
<path fill-rule="evenodd" clip-rule="evenodd" d="M779.732 764.113C784.739 765.063 788.516 770.525 788.156 776.315C787.798 782.106 783.447 786.025 778.433 785.075C773.419 784.126 769.649 778.663 770.007 772.873C770.366 767.082 774.718 763.163 779.732 764.113Z" fill="#FFDB59"/>
<path opacity="0.2" fill-rule="evenodd" clip-rule="evenodd" d="M697.073 722.641C698.458 713.823 705.666 709.926 713.145 713.962L824.799 772.578C832.304 776.607 837.274 787.037 835.89 795.855L821.054 889.961C819.668 898.778 812.449 902.67 804.938 898.646L693.284 840.023C685.766 835.995 680.809 825.566 682.194 816.753L697.073 722.641Z" fill="url(#paint15_linear_0_1)"/>
<path fill-rule="evenodd" clip-rule="evenodd" d="M482.977 137.186C471.015 143.719 476.746 158.822 487.613 174.788C503.03 197.437 465.711 222.935 516.438 235.833C511.152 222.02 533.128 216.949 543.941 198.07C556.403 176.291 549.504 154.448 533.481 135.839C520.444 120.69 496.595 120.88 482.977 137.186Z" fill="url(#paint16_linear_0_1)"/>
<path fill-rule="evenodd" clip-rule="evenodd" d="M506.658 280.314L509.582 290.583C510.504 292.781 511.055 293.374 514.447 291.947C516.303 291.112 515.684 287.515 515.202 284.89C514.752 282.746 514.797 280.536 515.332 278.41C515.712 277.32 516.457 276.374 517.458 275.71C519.486 274.196 521.86 273.183 520.401 268.366C519.635 265.85 519.82 263.974 519.783 261.366L512.71 260.929C512.877 266.806 510.077 270.766 507.148 275.705C505.725 278.093 506.035 277.644 506.658 280.314Z" fill="url(#paint17_linear_0_1)"/>
<path fill-rule="evenodd" clip-rule="evenodd" d="M531.825 215.142L531.775 214.814C531.765 214.337 531.691 213.863 531.553 213.404C529.754 202.238 526.106 183.422 523.264 173.608C518.317 156.468 502.548 162.391 502.709 172.619C502.863 182.294 512.531 203.245 514.758 212.333C513.966 218.946 510.998 251.973 512.025 257.746C512.222 258.845 512.742 259.559 512.68 260.768C512.637 261.688 512.371 262.051 512.062 263.156C514.851 263.463 517.622 263.898 520.364 264.463C520.425 263.598 520.564 262.74 520.778 261.896C521.254 260.653 522.478 260.014 523.028 258.967C525.742 253.786 530.23 226.636 531.466 217.801C531.703 216.932 531.822 216.039 531.825 215.142Z" fill="url(#paint18_linear_0_1)"/>
<g style="mix-blend-mode:multiply" opacity="0.35">
<path fill-rule="evenodd" clip-rule="evenodd" d="M529.767 225.594C530.825 223.223 532.017 215.81 532.005 212.552C532.005 205.743 529.217 200.114 528.364 195.791L502.821 172.124C502.988 176.556 508.54 188.366 510.82 197.08C514.369 210.681 522.102 222.394 529.767 225.594Z" fill="#3469C0"/>
</g>
<path fill-rule="evenodd" clip-rule="evenodd" d="M608.774 227.206C605.17 238.292 588.263 247.023 571.326 243.552C567.283 239.362 566.078 240.675 562.38 237.29C559.011 234.216 554.857 230.015 549.047 224.524C545.814 219.804 533.067 217.87 527.411 215.815C521.05 213.513 515.412 208.655 512.784 199.256C511.512 194.698 505.985 180.751 503.97 176.101C498.202 162.655 510.714 157.636 519.177 162.609C524.592 164.716 536.541 167.358 542.444 168.365C545.858 169.013 549.306 169.491 552.774 169.798C559.802 170.431 567.431 175.209 572.889 179.255C587.577 190.145 607.482 212.005 608.774 227.206Z" fill="url(#paint19_linear_0_1)"/>
<path fill-rule="evenodd" clip-rule="evenodd" d="M523.856 157.188C525.558 163.235 529.047 168.716 533.927 173.01C532.133 178.973 519.907 183.272 516 179.244C515.697 178.443 515.288 176.659 514.868 176.078C514.25 174.351 513.589 172.797 513.014 171.565L523.856 157.188Z" fill="url(#paint20_linear_0_1)"/>
<path fill-rule="evenodd" clip-rule="evenodd" d="M488.336 149.21C488.955 153.745 490.488 157.573 494.686 161.475C495.547 162.21 496.161 163.162 496.453 164.215C498.048 169.631 499.297 170.736 503.031 173.217C506.659 175.623 508.02 177.292 510.09 177.494C512.161 177.695 514.177 176.63 515.734 175.594C518.924 173.465 522.498 167.651 524.173 163.812C525.409 160.969 524.643 160.255 523.857 157.556C524.778 152.589 521.087 152.272 519.858 152.888C516.334 154.649 518.701 158.281 517.533 160.37C505.145 162.92 492.324 152.577 488.336 149.21Z" fill="#FFA698"/>
<path fill-rule="evenodd" clip-rule="evenodd" d="M488.336 149.21C495.217 159.881 510.369 162.575 517.533 160.376C505.145 162.92 492.324 152.577 488.336 149.21Z" fill="#FF9080"/>
<g style="mix-blend-mode:multiply" opacity="0.35">
<path fill-rule="evenodd" clip-rule="evenodd" d="M568.415 240.812C568.311 240.839 568.205 240.859 568.099 240.87C566.245 239.719 564.866 239.575 562.363 237.29C558.993 234.216 554.839 230.014 549.028 224.524C547.378 222.118 543.261 220.437 538.872 219.09C539.564 208.057 539.262 182.829 543.144 179.56C548.509 175.03 555.884 172.02 562.047 177.914C573.693 189.034 562.115 230.204 568.415 240.812Z" fill="#3469C0"/>
</g>
<path fill-rule="evenodd" clip-rule="evenodd" d="M552.033 255.639L544.665 229.836L549.759 225.612L596.238 249.906L591.917 254.419L571.722 267.001L552.033 255.639Z" fill="#4A9FF8"/>
<path fill-rule="evenodd" clip-rule="evenodd" d="M544.69 229.911L541.301 219.839L599.323 249.815L591.856 254.47L544.69 229.911Z" fill="#D0E7FF"/>
<path style="mix-blend-mode:multiply" opacity="0.5" fill-rule="evenodd" clip-rule="evenodd" d="M449.725 290.963C452.729 270.288 469.575 261.384 487.347 271.122L670.857 370.886C688.611 380.613 700.585 405.299 697.574 425.974L669.603 623.039C666.597 643.713 649.728 652.606 631.981 642.879L448.446 543.115C430.673 533.376 418.718 508.701 421.729 488.027L449.725 290.963Z" fill="url(#paint21_linear_0_1)"/>
<path fill-rule="evenodd" clip-rule="evenodd" d="M456.203 289.822C456.531 287.589 457.001 277.609 459.913 275.577C463.801 272.838 470.885 268.848 472.981 268.325C478.445 266.966 484.726 267.864 491.199 271.387L662.68 363.916C679.172 372.953 690.299 395.889 687.506 415.102L661.543 598.221C660.565 604.926 658.019 610.308 654.414 614.073C651.979 616.622 646.279 620.184 641.526 622.475C636.58 624.836 629.7 618.366 626.579 616.657L455.041 524.128C438.524 515.085 427.416 492.153 430.216 472.947L456.203 289.822Z" fill="#D0E7FF"/>
<path fill-rule="evenodd" clip-rule="evenodd" d="M450.17 293.748C452.964 274.541 468.616 266.271 485.128 275.33L655.65 368.037C672.143 377.074 683.27 400.011 680.476 419.224L654.513 602.342C651.713 621.548 636.042 629.814 619.549 620.76L449.001 528.053C432.49 519.01 421.382 496.08 424.176 476.873L450.17 293.748Z" fill="white"/>
<path fill-rule="evenodd" clip-rule="evenodd" d="M450.172 293.748C452.966 274.541 468.618 266.271 485.13 275.33L655.652 368.037C672.145 377.074 683.272 400.01 680.477 419.223L677.832 437.4L447.476 312.173L450.172 293.748Z" fill="url(#paint22_linear_0_1)"/>
<path fill-rule="evenodd" clip-rule="evenodd" d="M477.588 294.467C481.34 295.296 484.208 299.487 483.992 303.826C483.776 308.166 480.554 311.01 476.796 310.158C473.038 309.306 470.176 305.138 470.393 300.798C470.608 296.458 473.835 293.638 477.588 294.467Z" fill="white"/>
<path fill-rule="evenodd" clip-rule="evenodd" d="M497.628 306.117C501.387 306.946 504.255 311.136 504.038 315.475C503.822 319.816 500.602 322.659 496.844 321.807C493.084 320.956 490.217 316.788 490.439 312.448C490.662 308.109 493.876 305.277 497.628 306.117Z" fill="white"/>
<path fill-rule="evenodd" clip-rule="evenodd" d="M517.676 317.738C521.434 318.566 524.303 322.762 524.086 327.097C523.87 331.43 520.65 334.285 516.89 333.428C513.132 332.57 510.264 328.409 510.48 324.069C510.696 319.729 513.923 316.909 517.676 317.738Z" fill="white"/>
<path opacity="0.2" fill-rule="evenodd" clip-rule="evenodd" d="M486.34 348.555C503.747 352.399 517.045 371.819 516.012 391.929C514.98 412.04 500.076 425.226 482.668 421.382C465.261 417.536 451.963 398.123 452.996 378.012C454.028 357.902 468.932 344.709 486.34 348.555Z" fill="url(#paint23_linear_0_1)"/>
<path fill-rule="evenodd" clip-rule="evenodd" d="M485.499 365.337C494.89 367.41 502.054 377.879 501.51 388.723C500.965 399.567 492.917 406.675 483.533 404.604C474.149 402.531 466.979 392.062 467.523 381.218C468.067 370.374 476.115 363.266 485.499 365.337Z" fill="url(#paint24_linear_0_1)"/>
<path opacity="0.2" fill-rule="evenodd" clip-rule="evenodd" d="M526.508 387.578C527.126 383.302 530.6 381.517 534.266 383.589L645.722 443.409C649.382 445.481 651.848 450.632 651.231 454.92L649.994 463.37C649.375 467.64 645.896 469.424 642.235 467.358L530.804 407.522C527.144 405.45 524.677 400.298 525.302 396.01L526.508 387.578Z" fill="#955CF1"/>
<path opacity="0.2" fill-rule="evenodd" clip-rule="evenodd" d="M522.052 418.659C522.418 416.138 524.469 415.086 526.633 416.306L592.45 451.634C594.613 452.855 596.066 455.899 595.701 458.42L594.991 463.41C594.62 465.932 592.567 466.99 590.404 465.765L524.611 430.441C522.448 429.216 520.995 426.176 521.36 423.65L522.052 418.659Z" fill="#955CF1"/>
<path opacity="0.2" fill-rule="evenodd" clip-rule="evenodd" d="M447.681 426.585C448.131 423.476 450.66 422.17 453.33 423.707L645.817 526.533C648.482 528.041 650.281 531.793 649.829 534.902L649.211 538.976C648.76 542.091 646.225 543.392 643.56 541.883L451.093 439.034C448.422 437.527 446.63 433.773 447.081 430.666L447.681 426.585Z" fill="#955CF1"/>
<path opacity="0.2" fill-rule="evenodd" clip-rule="evenodd" d="M443.654 456.745C444.105 453.637 446.634 452.33 449.304 453.867L641.791 556.664C644.455 558.172 646.254 561.925 645.803 565.039L645.185 569.113C644.733 572.228 642.199 573.529 639.534 571.992L447.067 469.194C444.396 467.687 442.603 463.933 443.055 460.82L443.654 456.745Z" fill="#955CF1"/>
<path opacity="0.2" fill-rule="evenodd" clip-rule="evenodd" d="M439.44 485.477C439.892 482.364 442.421 481.063 445.091 482.6L637.578 585.425C640.242 586.933 642.041 590.686 641.59 593.794L640.971 597.87C640.52 600.984 637.985 602.284 635.321 600.748L442.853 497.921C440.183 496.413 438.39 492.66 438.842 489.552L439.44 485.477Z" fill="#955CF1"/>
<path fill-rule="evenodd" clip-rule="evenodd" d="M688.147 273.148C688.765 269.165 685.902 266.092 687.764 263.455C689.772 260.577 696.597 258.557 699.552 257.568C703.737 256.163 708.67 256.617 713.689 259.294L918.428 368.278C930.383 374.644 938.352 391.198 936.213 405.213L913.229 554.764C912.179 561.631 908.902 566.627 904.408 569.182C901.67 570.748 894.165 573.735 890.765 573.35C888.379 573.079 890.196 569.96 887.675 568.624L682.936 459.628C670.968 453.256 663.012 436.709 665.157 422.699L688.147 273.148Z" fill="#D0E7FF"/>
<path fill-rule="evenodd" clip-rule="evenodd" d="M682.009 275.427C684.154 261.412 695.609 255.196 707.558 261.574L912.296 370.581C924.252 376.947 932.22 393.5 930.075 407.515L907.097 557.066C904.952 571.076 893.498 577.292 881.542 570.921L676.805 461.925C664.837 455.552 656.881 439.005 659.026 424.99L682.009 275.427Z" fill="url(#paint25_linear_0_1)"/>
<path fill-rule="evenodd" clip-rule="evenodd" d="M666.083 431.844C666.269 430.63 667.264 430.118 668.296 430.693L895.425 551.921C895.97 552.286 896.4 552.78 896.67 553.352C896.939 553.924 897.038 554.552 896.958 555.172L896.34 558.863C896.155 560.083 895.165 560.589 894.127 560.014L667.048 438.791C666.5 438.427 666.068 437.933 665.798 437.359C665.527 436.786 665.427 436.156 665.508 435.535L666.083 431.844Z" fill="#6D6AFD"/>
<path fill-rule="evenodd" clip-rule="evenodd" d="M666.221 431.961C666.4 430.81 667.358 430.286 668.353 430.849L759.948 479.733C760.474 480.085 760.888 480.561 761.148 481.113C761.408 481.665 761.504 482.272 761.425 482.871L760.85 486.428C760.665 487.579 759.713 488.102 758.712 487.544L667.124 438.66C666.596 438.31 666.18 437.833 665.919 437.281C665.658 436.729 665.561 436.122 665.639 435.524L666.221 431.961Z" fill="#B269EB"/>
<path fill-rule="evenodd" clip-rule="evenodd" d="M755.985 360.002C756.498 356.664 759.218 355.185 762.061 356.704L825.115 390.272C827.959 391.785 829.851 395.722 829.343 399.061L820.837 454.891C820.33 458.23 817.605 459.703 814.761 458.19L751.707 424.622C748.857 423.109 746.966 419.171 747.473 415.833L755.985 360.002Z" fill="url(#paint26_linear_0_1)"/>
<path fill-rule="evenodd" clip-rule="evenodd" d="M791.945 384.298C781.034 378.49 770.611 384.148 768.657 396.931C766.704 409.715 773.95 424.789 784.867 430.603C795.784 436.416 806.194 430.752 808.147 417.939C810.1 405.128 802.849 390.104 791.945 384.298Z" fill="url(#paint27_linear_0_1)"/>
<path fill-rule="evenodd" clip-rule="evenodd" d="M781.85 390.508L778.406 413.634L799.455 414.17L781.85 390.508Z" fill="white"/>
<path fill-rule="evenodd" clip-rule="evenodd" d="M536.684 272.222C534.898 275.008 535.837 281.028 535.256 283.894C534.626 286.757 533.71 289.559 532.517 292.263C532.141 293.005 520.271 302.824 519.579 302.329C518.015 301.178 517.001 293.455 519.054 291.198C521.106 288.942 522.843 286.743 523.189 284.896C523.535 283.048 523.431 276.923 524.289 275.974C526.237 273.833 528.271 273.153 529.142 270.478L536.684 272.222Z" fill="url(#paint28_linear_0_1)"/>
<path fill-rule="evenodd" clip-rule="evenodd" d="M559.76 234.712C559.951 234.074 560.102 233.426 560.211 232.772C563.302 220.869 566.442 200.499 566.041 188.7C565.731 179.687 561.02 172.054 549.665 174.996C546.173 175.894 542.136 178.369 541.629 182.645C541.01 187.768 541.833 196.275 542.352 204.966C542.766 211.907 542.736 224.437 543.02 229.514C542.97 229.669 542.921 229.825 542.878 229.986C539.243 236.726 530.78 258.73 529.005 265.873C528.709 267.065 529.005 268.348 529.005 269.17C528.923 270.109 528.609 271.018 528.085 271.824C530.294 273.671 532.977 274.957 535.874 275.559C536.328 274.651 536.859 273.777 537.463 272.947C537.951 272.245 540.226 271.583 541.116 270.598C545.82 265.349 558.233 241.348 559.753 234.965C559.76 234.884 559.76 234.798 559.76 234.712Z" fill="url(#paint29_linear_0_1)"/>
<path opacity="0.3" fill-rule="evenodd" clip-rule="evenodd" d="M378.389 847.94L481.469 793.261C492.707 788.477 508.793 784.672 520.241 790.221C530.67 795.275 547.855 805.624 555.476 809.658C561.244 812.72 581.279 823.898 568.804 830.213C532.091 848.797 495.768 869.702 458.492 888.581C451.438 892.149 441.127 893.444 430.303 892.61C419.478 891.776 408.469 888.858 399.771 884.143C393.589 880.793 387.497 877.492 381.492 874.237C373.407 869.858 369.129 864.671 368.696 859.882C368.263 855.215 371.489 850.869 378.389 847.94Z" fill="#955CF1"/>
<path fill-rule="evenodd" clip-rule="evenodd" d="M416.375 845.044C418.39 844.998 425.191 839.047 431.637 842.051C439.371 845.66 454.066 842.465 461.477 844.123C462.8 844.417 465.384 843.513 465.891 844.359C467.492 847.001 469.037 850.961 465.105 853.568C462.219 855.474 456.025 857.994 451.97 859.324C447.643 860.745 440.287 862.984 435.347 863.704C429.87 864.499 427.372 864.855 425.326 866.3C422.397 867.676 419.373 868.262 417.679 868.026C414.07 867.491 409.865 865.523 407.937 861.695C407.319 860.469 407.319 855.122 408.011 851.651C408.574 848.912 410.175 845.792 411.46 842.88L416.375 845.044Z" fill="white"/>
<path fill-rule="evenodd" clip-rule="evenodd" d="M432.202 832.236C429.729 837.71 430.502 846.177 424.704 849.119C420.827 851.081 414.751 851.099 412.105 845.486C410.627 842.355 412.593 837.013 412.155 830.142L432.202 832.236Z" fill="#FFA495"/>
<path fill-rule="evenodd" clip-rule="evenodd" d="M433.814 840.717C438.259 841.919 450.505 841.113 458.287 841.695C461.626 841.948 464.611 841.926 466.176 844.745C467.609 847.336 466.855 849.563 463.61 851.698C460.716 853.604 455.815 855.774 451.754 857.115C447.427 858.536 440.07 860.776 435.131 861.494C429.654 862.295 427.163 862.645 425.11 864.096C422.181 865.466 419.157 866.059 417.47 865.823C415.391 865.49 413.428 864.706 411.734 863.537C410.04 862.367 408.666 860.844 407.721 859.088C407.103 857.863 407.103 852.912 407.802 849.442C407.946 848.751 408.135 848.068 408.37 847.398C408.989 841.965 410.911 839.766 412.728 840.694C415.201 841.971 416.153 844.262 417.099 846.144C417.402 846.838 417.861 847.466 418.444 847.983C419.027 848.501 419.721 848.898 420.48 849.149C423.453 850.024 426.173 848.475 427.898 846.098C428.872 844.367 429.559 842.511 429.938 840.59C429.938 840.405 429.938 840.222 429.938 840.014C430.52 835.266 433.029 835.674 432.628 836.681C432.225 837.689 432.466 839.744 433.814 840.717Z" fill="#193161"/>
<path fill-rule="evenodd" clip-rule="evenodd" d="M464.624 843.944C464.562 845.78 467.584 845.952 466.713 849.182C468.166 847.858 466.138 844.048 465.242 843.467C464.871 843.23 464.562 843.126 464.624 843.944Z" fill="white"/>
<path fill-rule="evenodd" clip-rule="evenodd" d="M466.942 826.206C468.798 825.516 473.007 817.751 480.165 818.504C483.058 818.81 487.701 818.113 492.411 816.864C499.928 814.873 510.399 808.616 512.193 809.641C516.087 811.874 516.402 815.938 513.671 819.627C511.655 822.344 507.853 825.958 504.54 828.514C501.016 831.225 496.027 835.381 491.651 837.637C487.515 839.772 486.143 839.582 483.2 843.283C480.962 845.51 478.335 846.84 476.66 847.145C472.332 847.923 466.151 845.355 463.876 842.673C462.448 838.368 459.969 834.293 461.559 827.834L466.942 826.206Z" fill="white"/>
<path fill-rule="evenodd" clip-rule="evenodd" d="M476.87 807.868C476.752 813.796 480.795 821.411 476.56 826.13C473.73 829.284 468.091 831.38 463.418 827.068C460.809 824.662 460.519 819.011 457.403 812.783L476.87 807.868Z" fill="#FFA495"/>
<path fill-rule="evenodd" clip-rule="evenodd" d="M490.481 815.096C490.914 814.992 491.34 814.883 491.766 814.767C499.284 812.776 509.329 807.952 511.116 808.978C515.011 811.21 515.752 813.841 513.02 817.53C511.004 820.247 507.202 823.861 503.883 826.411C500.366 829.128 495.377 833.277 491 835.54C486.865 837.675 485.492 837.485 482.55 841.186C480.312 843.413 477.685 844.743 476.01 845.043C471.683 845.826 465.285 843.235 463.028 840.553C461.965 837.347 460.505 834.296 460.388 830.267C459.77 825.001 460.154 822.319 462.613 822.382C467.194 822.509 469.086 824.753 470.977 825.836C475.051 828.201 477.778 825.145 478.452 821.363C478.531 819.69 478.404 818.014 478.074 816.367C478.014 816.191 477.944 816.018 477.864 815.849C476.529 811.245 479.002 810.768 479.051 811.82C479.028 812.809 479.402 813.772 480.101 814.517C480.8 815.263 481.772 815.738 482.828 815.849C485.325 816.224 488.471 815.251 490.481 815.096Z" fill="#193161"/>
<path fill-rule="evenodd" clip-rule="evenodd" d="M510.652 809.571C511.45 811.251 514.256 810.199 514.979 813.462C515.678 811.677 512.08 809.059 511.005 808.891C510.553 808.828 510.219 808.863 510.652 809.571Z" fill="white"/>
<path fill-rule="evenodd" clip-rule="evenodd" d="M472.535 647.8C474.186 664.97 483.428 719.822 480.856 734.879C476.992 757.522 478.093 784.873 478.136 808.909C477.518 819.004 462.571 824.282 458.231 817.865C454.75 796.391 449.793 777.575 447.777 765.643C445.515 752.284 446.264 736.048 449.904 727.264C448.409 717.669 441.386 692.92 435.519 675.767C433.399 669.58 421.401 649.584 433.819 629.722L472.535 647.8Z" fill="url(#paint30_linear_0_1)"/>
<path fill-rule="evenodd" clip-rule="evenodd" d="M478.379 802.463C478.379 804.242 478.324 806.958 478.324 808.708C477.705 818.803 462.572 824.282 458.232 817.865C457.979 816.283 457.615 814.711 457.336 813.162C463.172 819.016 474.608 811.413 478.379 802.463Z" fill="url(#paint31_linear_0_1)"/>
<g style="mix-blend-mode:multiply" opacity="0.3">
<path fill-rule="evenodd" clip-rule="evenodd" d="M481.252 724.656C476.387 747.362 462.633 777.695 455.128 800.528C451.221 780.959 441.442 747.651 449.898 727.264C449.052 721.796 446.406 711.418 443.198 700.327C449.707 688.816 443.488 679.669 446.56 663.49C463.789 660.692 437.789 641.117 474.242 661.734C477.543 686.11 480.572 701.432 481.252 724.656Z" fill="#1E2353"/>
</g>
<path fill-rule="evenodd" clip-rule="evenodd" d="M471.361 746.195C461.421 767.146 443.086 808.242 433.331 833.952C428.286 840.779 410.292 840.065 410.329 833.699C414.303 812.202 418.984 779.049 427.254 760.199C429.795 754.442 439.154 740.543 442.523 736.421C445.151 726.936 448.433 701.312 450.974 687.446C448.699 675.974 438.758 656.791 457.854 640.117C465.557 645.222 489.38 648.41 500.18 642.73C501.917 688.05 489.968 706.946 471.361 746.195Z" fill="url(#paint32_linear_0_1)"/>
<path fill-rule="evenodd" clip-rule="evenodd" d="M435.341 829.468C434.908 830.619 434.042 832.858 433.634 833.935C428.441 840.963 409.921 840.231 409.952 833.676C410.15 832.617 410.347 831.523 410.57 830.412C414.965 834.602 428.318 834.655 435.341 829.468Z" fill="url(#paint33_linear_0_1)"/>
<path fill-rule="evenodd" clip-rule="evenodd" d="M532.282 396.643C531.571 398.031 530.897 399.436 530.155 400.811L527.121 406.469C526.502 403.694 524.091 402.635 522.261 404.033C521.614 404.53 521.106 405.163 520.778 405.881C520.487 405.128 518.188 403.418 515.072 407.539C513.131 407.344 512.105 408.115 511.289 409.571C510.781 410.529 510.345 411.52 509.985 412.536C509.43 413.818 509.124 415.182 509.077 416.564C509.077 419.293 509.224 422.257 509.137 425.514C509.052 429.054 504.737 433.538 502.393 436.117L516.506 440.283C518.663 437.763 519.826 435.938 522.002 433.889C524.178 431.84 527.015 431.546 529.13 429.934C530.31 429.037 530.984 427.84 532.999 425.192C534.662 422.999 535.57 420.627 537.16 418.228C538.748 415.827 538.606 416.288 538.767 413.502C538.884 411.35 539.632 409.225 539.823 407.919C536.924 406.573 534.637 409.905 534.662 413.151C532.999 414.02 531.911 416.155 531.534 417.105C529.229 414.296 530.601 413.122 531.534 409.519C532.918 407.228 534.031 404.805 534.854 402.289C535.304 401.179 535.756 400.028 536.239 398.785C536.894 396.764 536.053 395.331 535.398 394.934C534.86 394.6 533.457 394.756 532.282 396.643Z" fill="url(#paint34_linear_0_1)"/>
<path fill-rule="evenodd" clip-rule="evenodd" d="M538.161 407.631C536.096 407.907 534.644 410.554 534.662 413.144C533.104 413.962 532.053 415.879 531.614 416.903C532.461 415.889 534.619 413.719 535.323 413.45C535.54 410.957 536.498 408.909 538.161 407.619V407.631ZM527.38 405.984L527.121 406.468C526.982 405.852 526.719 405.266 526.347 404.741C526.197 406.3 525.49 407.768 524.339 408.909C525.048 408.666 525.689 408.279 526.216 407.774C526.742 407.271 527.14 406.662 527.38 405.996V405.984ZM520.759 405.841C520.596 405.538 520.337 405.291 520.017 405.132C519.737 406.466 519.199 407.742 518.429 408.897C519.521 408.123 520.335 407.057 520.759 405.841ZM515.14 407.452L515.072 407.538C514.772 407.51 514.47 407.51 514.169 407.538C514.033 409.052 513.462 410.506 512.519 411.746C514.015 410.37 514.769 409.449 515.14 407.452Z" fill="#FF8978"/>
<path fill-rule="evenodd" clip-rule="evenodd" d="M478.989 472.55C486.092 461.039 491.655 446.598 501.577 434.897C502.405 433.918 504.353 433.169 505.063 432.145C506.102 430.656 507.133 429.195 508.155 427.759C512.804 427.834 518.515 430.062 522.434 433.751C521.878 435.286 521.332 436.821 520.795 438.356C520.178 440.134 521.37 443.939 520.795 445.718C516.258 460.836 510.44 475.596 503.395 489.858C493.553 501.675 449.817 577.558 426.952 550.022C424.893 540.238 427.674 532.082 432.967 524.156C435.896 519.77 440.348 515.942 443.345 513.048C450.571 506.112 468.195 482.916 478.989 472.55Z" fill="url(#paint35_linear_0_1)"/>
<path fill-rule="evenodd" clip-rule="evenodd" d="M430.335 586.266C431.935 599.7 427.595 612.915 432.01 625.181C432.207 626.452 432.337 631.426 432.565 632.778C435.477 648.669 471.579 664.751 501.69 649.47C501.857 647.502 501.69 645.441 501.826 641.792C501.27 638.385 502.853 634.729 502.84 632.651C502.796 624.018 499.909 619.58 501.295 609.957C504.113 590.387 515.766 571.566 509.331 556.163C507.952 552.854 505.523 551.254 502.778 549.199C495.662 543.876 458.888 526.429 447.705 525.198C415.307 521.319 428.598 571.687 430.335 586.266Z" fill="url(#paint36_linear_0_1)"/>
<g style="mix-blend-mode:multiply" opacity="0.35">
<path fill-rule="evenodd" clip-rule="evenodd" d="M504.55 595.797C508.73 581.407 514.188 567.824 509.317 556.191C507.939 552.882 505.509 551.282 502.765 549.227C495.649 543.903 496.583 558.217 485.455 556.985C483.292 576.112 493.448 593.511 504.55 595.797Z" fill="#6266D7"/>
</g>
<path fill-rule="evenodd" clip-rule="evenodd" d="M481.869 519.211C481.481 524.723 481.756 530.258 482.692 535.713C472.146 535.396 457.482 532.835 455.881 525.514C455.961 524.633 456.023 523.747 456.073 522.872C455.937 522.758 455.793 522.654 455.64 522.561C451.863 520.219 445.608 518.48 441.582 514.198C435.154 507.355 431.742 498.162 436.786 488.908C445.997 472.008 468.276 471.726 480.676 485.385C483.1 488.056 481.294 490.818 482.704 493.396C482.976 493.898 483.94 494.122 485.114 495.008C486.703 496.228 491.333 506.79 491.216 512.304C491.166 514.526 485.689 517.651 483.254 518.878C482.808 519.038 482.343 519.15 481.869 519.211Z" fill="#FFA698"/>
<path fill-rule="evenodd" clip-rule="evenodd" d="M481.87 519.211C481.482 524.723 481.757 530.258 482.693 535.713C472.147 535.396 457.483 532.835 455.882 525.513C455.962 524.633 456.024 523.746 456.074 522.872C455.932 522.757 455.771 522.671 455.641 522.561C447.605 515.574 458.349 507.596 471.899 514.462C472.911 516.049 474.384 517.336 476.148 518.177C477.912 519.017 479.896 519.376 481.87 519.211Z" fill="url(#paint37_linear_0_1)"/>
<path fill-rule="evenodd" clip-rule="evenodd" d="M491.192 512.305C491.142 513.278 486.828 514.74 485.01 514.965C486.247 504.53 475.571 502.935 477.178 492.741C478.142 486.618 471.38 484.402 474.031 479.918C476.507 481.434 478.732 483.276 480.64 485.386C483.064 488.056 481.258 490.819 482.668 493.398C482.94 493.899 483.904 494.123 485.079 495.01C486.68 496.229 491.465 506.797 491.192 512.305Z" fill="url(#paint38_linear_0_1)"/>
<path fill-rule="evenodd" clip-rule="evenodd" d="M476.652 508.063C476.448 505.726 475.416 505.277 474.587 505.898C473.759 506.521 472.875 508.603 473.129 511.009C473.537 514.883 477.4 518.359 480.059 515.223C477.147 516.662 475.781 513.185 475.657 510.733C475.57 509.07 476.021 507.672 476.652 508.063Z" fill="#FFB49C"/>
<path fill-rule="evenodd" clip-rule="evenodd" d="M475.726 509.56C477.278 510.648 477.988 511.384 477.964 512C477.964 512.426 477.568 513.064 476.208 512.616C475.737 511.66 475.57 510.601 475.726 509.56Z" fill="#FF9D8E"/>
<path fill-rule="evenodd" clip-rule="evenodd" d="M455.728 525.249C452.638 526.147 449.689 529.134 450.258 531.051C453.349 542.873 476.641 545.515 491.112 542.667C491.292 542.632 485.697 535.759 482.928 534.907C473.835 535.771 458.535 532.231 455.728 525.249Z" fill="#726CDE"/>
<path fill-rule="evenodd" clip-rule="evenodd" d="M454.608 524.519C450.745 520.685 444.218 518.855 440.027 514.394C435.835 509.933 431.372 503.24 434.135 496.304C429.27 482.058 445.88 470.755 459.906 468.187C469.933 466.351 475.924 476.36 471.572 483.152C475.324 487.066 475.2 492.24 474.941 493.57C474.137 497.639 474.248 498.175 475.646 501.196C476.751 503.602 479.503 509.416 474.521 505.732C471.306 503.355 469.056 508.61 470.144 512.241C470.911 514.511 471.15 516.907 470.842 519.269C469.909 526.872 456.753 526.654 454.608 524.519Z" fill="#562E65"/>
<path fill-rule="evenodd" clip-rule="evenodd" d="M438.779 489.858C435.459 476.044 454.95 469.068 462.572 468.901C470.287 468.74 476.332 480.556 467.184 484.539C460.952 487.25 448.595 481.943 438.779 489.858Z" fill="url(#paint39_linear_0_1)"/>
<path fill-rule="evenodd" clip-rule="evenodd" d="M593.294 509.397C592.936 510.293 592.728 511.234 592.676 512.189C592.044 513.551 591.56 514.968 591.23 516.42C590.753 518.653 590.932 520.413 590.858 523.389C590.861 524.838 591.081 526.28 591.514 527.672C589.66 531.079 586.698 533.175 583.947 535.983L592.855 542.315C596.613 540.013 599.55 537.577 602.789 535.574C605.416 534.608 606.338 534.061 607.117 533.272C609.18 531.269 615.257 525.318 615.603 522.981C615.993 520.38 615.252 514.348 614.62 511.078C613.007 502.669 609.571 493.84 608.976 497.737C608.118 498.669 608.822 506.266 608.279 507.394C606.171 509.656 605.188 510.583 602.523 513.283C600.885 514.151 599.803 515.055 599.012 515.256C598.097 515.487 597.596 514.894 597.566 514.146C597.534 513.398 598.103 511.844 598.573 509.668C598.573 506.065 597.615 504.022 595.544 504.212C595.059 504.233 594.597 504.414 594.242 504.723C593.885 505.032 593.66 505.448 593.602 505.898C593.386 506.761 593.442 507.924 593.294 509.397Z" fill="url(#paint40_linear_0_1)"/>
<path fill-rule="evenodd" clip-rule="evenodd" d="M503.507 544.68C515.771 546.442 539.442 559.007 555.774 565.816C564.885 553.729 576.835 539.247 584.209 534.372C585.057 533.796 587.214 532.645 587.875 531.92C588.944 530.7 589.989 529.445 590.966 528.156C595.571 528.732 602.248 534.107 602.161 536.635C601.419 537.9 600.66 539.224 599.893 540.588C599.373 541.521 599.565 543.564 599.274 544.617C596.801 553.079 582.986 572.624 576.556 581.35C572.848 586.386 571.537 589.345 569.021 590.848C564.984 593.264 559.569 591.946 549.135 589.506C540.356 587.451 512.007 582.646 498.964 576.239C489.764 571.721 482.706 563.577 486.359 554.207C488.671 548.198 495.607 543.547 503.507 544.68Z" fill="url(#paint41_linear_0_1)"/>
<path opacity="0.5" fill-rule="evenodd" clip-rule="evenodd" d="M841.027 195.785C832.991 191.653 824.516 197.23 824.603 208.022C824.64 213.611 827.186 219.361 831.205 222.987C832.178 223.869 833.269 224.631 834.45 225.255C842.449 229.381 850.905 223.804 850.844 213.064C850.844 207.464 848.297 201.691 844.297 198.099C843.318 197.205 842.219 196.431 841.027 195.797V195.785ZM833.306 230.319C831.72 229.486 830.256 228.467 828.948 227.286C823.539 222.452 820.151 214.704 820.071 207.187C819.972 192.712 831.377 185.183 842.147 190.743C843.758 191.589 845.244 192.628 846.566 193.834C851.957 198.657 855.344 206.405 855.381 213.927C855.449 228.363 844.063 235.874 833.306 230.319ZM869.989 218.02C871.843 218.992 872.98 221.531 872.462 223.718L870.502 232.196C870.001 234.36 868.072 235.327 866.174 234.36L865.216 233.865C864.902 233.684 864.551 233.566 864.186 233.518C863.819 233.469 863.447 233.491 863.091 233.583C862.735 233.673 862.403 233.832 862.115 234.049C861.828 234.264 861.592 234.533 861.421 234.838C860.889 235.672 860.306 236.477 859.677 237.25C858.701 238.441 858.54 240.346 859.288 242.05L859.795 243.201C860.759 245.388 860.179 247.886 858.515 248.727L851.969 252.013C851.553 252.214 851.09 252.312 850.621 252.297C850.153 252.282 849.698 252.155 849.299 251.927C848.316 251.373 847.563 250.527 847.159 249.526L846.646 248.405C846.246 247.415 845.499 246.582 844.526 246.038C844.045 245.782 843.498 245.65 842.943 245.659C842.01 245.659 841.089 245.63 840.124 245.55C838.623 245.417 837.362 246.413 836.978 248.07L836.725 249.176C836.224 251.334 834.301 252.307 832.397 251.339L825.048 247.541C823.193 246.574 822.055 244.035 822.575 241.872L822.834 240.766C823.007 239.904 822.967 239.017 822.717 238.171C822.468 237.326 822.016 236.545 821.394 235.886C820.602 235.074 819.867 234.233 819.131 233.37C818.752 232.902 818.276 232.51 817.728 232.219C817.333 231.992 816.882 231.864 816.418 231.848C815.955 231.831 815.495 231.928 815.082 232.127L814.223 232.542C813.806 232.742 813.342 232.841 812.873 232.825C812.404 232.81 811.948 232.682 811.546 232.455C810.563 231.903 809.809 231.057 809.408 230.055L805.588 221.364C804.623 219.171 805.205 216.673 806.86 215.838L807.733 215.395C809.025 214.745 809.686 213.093 809.414 211.262C809.234 210.111 809.111 208.925 809.03 207.757C808.913 205.95 807.887 204.235 806.452 203.492L805.494 202.997C803.64 202.03 802.503 199.492 803.022 197.328L804.981 188.85C805.489 186.662 807.417 185.69 809.309 186.662L810.267 187.152C810.581 187.333 810.932 187.452 811.298 187.501C811.663 187.55 812.037 187.529 812.393 187.437C812.749 187.346 813.081 187.187 813.369 186.97C813.656 186.754 813.892 186.484 814.062 186.179C814.594 185.347 815.177 184.544 815.806 183.773C816.777 182.622 816.937 180.699 816.189 178.996L815.682 177.845C814.724 175.634 815.299 173.154 816.968 172.296L823.563 168.975C823.98 168.776 824.444 168.679 824.912 168.695C825.379 168.712 825.835 168.84 826.235 169.067C827.217 169.618 827.97 170.462 828.373 171.461L828.88 172.613C829.28 173.601 830.027 174.435 831.001 174.978C831.48 175.239 832.028 175.371 832.583 175.358C833.526 175.338 834.469 175.367 835.408 175.444C836.91 175.606 838.165 174.61 838.549 172.952L838.802 171.847C839.308 169.66 841.237 168.693 843.128 169.66L850.486 173.459C852.34 174.426 853.477 176.964 852.958 179.145L852.704 180.256C852.529 181.112 852.566 181.994 852.814 182.834C853.061 183.674 853.512 184.45 854.132 185.103C854.923 185.912 855.682 186.762 856.407 187.652C856.786 188.122 857.262 188.513 857.81 188.803C858.206 189.03 858.657 189.158 859.12 189.175C859.583 189.192 860.043 189.098 860.456 188.901L861.328 188.464C861.743 188.263 862.207 188.165 862.675 188.18C863.143 188.195 863.6 188.322 863.999 188.55C864.98 189.103 865.736 189.946 866.144 190.945L869.957 199.641C870.916 201.857 870.347 204.332 868.678 205.19L867.806 205.628C866.515 206.278 865.853 207.93 866.131 209.743C866.304 210.894 866.432 212.06 866.515 213.242C866.544 214.095 866.794 214.927 867.244 215.67C867.695 216.413 868.33 217.043 869.098 217.507L869.989 218.02Z" fill="white"/>
</g>
<path fill-rule="evenodd" clip-rule="evenodd" d="M93.1135 183.043C92.1294 188.282 86.8389 190.658 81.2747 188.254C75.7105 185.849 71.9295 179.588 72.9136 174.348C73.8976 169.108 79.1659 166.887 84.8559 169.32C90.4349 171.719 94.1198 177.843 93.1356 183.043H93.1135ZM62.4584 229.592C63.4425 224.352 68.7108 222.085 74.4008 224.524C80.0907 226.964 83.6721 233.047 82.6806 238.298C81.689 243.549 76.406 245.908 70.8419 243.503C65.2776 241.099 61.4891 234.838 62.4806 229.604L62.4584 229.592ZM27.5342 184.793C26.5575 189.998 21.1782 192.225 15.5992 189.826C10.0202 187.427 6.32794 181.304 7.31204 176.098C8.29613 170.893 13.6236 168.506 19.1508 170.893C24.678 173.28 28.5035 179.559 27.5119 184.793H27.5342ZM86.0917 162.64C76.5836 158.548 67.4677 162.365 65.7807 171.283V171.943L32.6396 175.961C30.2866 170.939 25.9211 166.635 20.4457 164.282C10.9377 160.195 1.94762 164.104 0.268004 173.016C-1.39682 181.832 4.86292 192.369 14.371 196.455C19.8464 198.813 25.0775 198.526 28.829 196.133L55.555 226.017L55.3552 226.493C53.6681 235.406 60.0906 245.908 69.5913 249.995C79.0919 254.08 88.0893 250.201 89.7689 241.288C91.4339 232.473 85.0706 221.862 75.6661 217.816C68.9106 214.912 62.4288 216.031 58.6034 220.014L33.2833 191.399C33.966 190.25 34.4035 189.023 34.5782 187.766C34.8859 186.367 34.9507 184.943 34.7706 183.53L66.2838 179.347C68.1337 185.803 73.2539 191.875 80.0242 194.785C89.4213 198.802 98.5222 194.963 100.202 186.05C101.882 177.137 95.4885 166.692 86.0917 162.64Z" fill="url(#paint42_linear_0_1)"/>
<path opacity="0.5" fill-rule="evenodd" clip-rule="evenodd" d="M42 771.84L88.3337 700L111.726 779.761L135.508 752.604L165.13 838.12L42 771.84Z" fill="url(#paint43_linear_0_1)"/>
<path opacity="0.5" fill-rule="evenodd" clip-rule="evenodd" d="M126.441 700.275C132.833 701.745 138.553 708.692 139.217 715.743C139.881 722.794 135.229 727.398 128.837 725.896C122.446 724.394 116.719 717.478 116.062 710.427C115.405 703.376 120.043 698.805 126.441 700.275Z" fill="#FF89DB"/>
<defs>
<linearGradient id="paint0_linear_0_1" x1="418.809" y1="619.151" x2="783.46" y2="-93.1572" gradientUnits="userSpaceOnUse">
<stop stop-color="#965CF2"/>
<stop offset="1" stop-color="#FF8ADC"/>
</linearGradient>
<linearGradient id="paint1_linear_0_1" x1="577.693" y1="247.495" x2="577.682" y2="321.847" gradientUnits="userSpaceOnUse">
<stop stop-color="#324179"/>
<stop offset="1" stop-color="#0C124D"/>
</linearGradient>
<linearGradient id="paint2_linear_0_1" x1="590.991" y1="252.238" x2="590.942" y2="378.893" gradientUnits="userSpaceOnUse">
<stop stop-color="#324179"/>
<stop offset="1" stop-color="#0C124D"/>
</linearGradient>
<linearGradient id="paint3_linear_0_1" x1="654.986" y1="377.62" x2="580.474" y2="863.329" gradientUnits="userSpaceOnUse">
<stop stop-color="#D1E8FF"/>
<stop offset="1" stop-color="#EAEFFF"/>
</linearGradient>
<linearGradient id="paint4_linear_0_1" x1="704.697" y1="286.024" x2="529.359" y2="889.28" gradientUnits="userSpaceOnUse">
<stop stop-color="#6D6AFE"/>
<stop offset="1" stop-color="#3FB0F7"/>
</linearGradient>
<linearGradient id="paint5_linear_0_1" x1="796.649" y1="675.498" x2="841.474" y2="574.239" gradientUnits="userSpaceOnUse">
<stop stop-color="#965CF2"/>
<stop offset="1" stop-color="#FF8ADC"/>
</linearGradient>
<linearGradient id="paint6_linear_0_1" x1="790.114" y1="500.793" x2="874.715" y2="368.065" gradientUnits="userSpaceOnUse">
<stop stop-color="#965CF2"/>
<stop offset="1" stop-color="#FF8ADC"/>
</linearGradient>
<linearGradient id="paint7_linear_0_1" x1="350.422" y1="630.349" x2="402.412" y2="508.563" gradientUnits="userSpaceOnUse">
<stop stop-color="#965CF2"/>
<stop offset="1" stop-color="#FF8ADC"/>
</linearGradient>
<linearGradient id="paint8_linear_0_1" x1="279.023" y1="500.771" x2="258.609" y2="563.621" gradientUnits="userSpaceOnUse">
<stop stop-color="#1C8EF4"/>
<stop offset="1" stop-color="#00CFDD"/>
</linearGradient>
<linearGradient id="paint9_linear_0_1" x1="357.883" y1="328.691" x2="399.474" y2="179.304" gradientUnits="userSpaceOnUse">
<stop stop-color="#965CF2"/>
<stop offset="1" stop-color="#FF8ADC"/>
</linearGradient>
<linearGradient id="paint10_linear_0_1" x1="344.266" y1="179.94" x2="296.843" y2="347.231" gradientUnits="userSpaceOnUse">
<stop stop-color="#6D6AFE"/>
<stop offset="1" stop-color="#3FB0F7"/>
</linearGradient>
<linearGradient id="paint11_linear_0_1" x1="800.791" y1="643.501" x2="814.936" y2="613.986" gradientUnits="userSpaceOnUse">
<stop stop-color="#965CF2"/>
<stop offset="1" stop-color="#FF8ADC"/>
</linearGradient>
<linearGradient id="paint12_linear_0_1" x1="609.806" y1="686.749" x2="575.374" y2="744.289" gradientUnits="userSpaceOnUse">
<stop stop-color="#FF66BC"/>
<stop offset="0.56" stop-color="#FF8ADC"/>
<stop offset="1" stop-color="#FFBBA8"/>
</linearGradient>
<linearGradient id="paint13_linear_0_1" x1="620.062" y1="706.538" x2="520.547" y2="711.124" gradientUnits="userSpaceOnUse">
<stop stop-color="#FF66BC"/>
<stop offset="0.56" stop-color="#FF8ADC"/>
<stop offset="1" stop-color="#FFBBA8"/>
</linearGradient>
<linearGradient id="paint14_linear_0_1" x1="756.557" y1="826.16" x2="772.73" y2="778.421" gradientUnits="userSpaceOnUse">
<stop stop-color="#965CF2"/>
<stop offset="1" stop-color="#FF8ADC"/>
</linearGradient>
<linearGradient id="paint15_linear_0_1" x1="761.325" y1="845.722" x2="755.509" y2="728.555" gradientUnits="userSpaceOnUse">
<stop stop-color="#965CF2"/>
<stop offset="1" stop-color="#FF8ADC"/>
</linearGradient>
<linearGradient id="paint16_linear_0_1" x1="513.285" y1="133.692" x2="513.398" y2="217.68" gradientUnits="userSpaceOnUse">
<stop stop-color="#5A2D68"/>
<stop offset="1" stop-color="#22043D"/>
</linearGradient>
<linearGradient id="paint17_linear_0_1" x1="515.808" y1="277.12" x2="512.009" y2="275.671" gradientUnits="userSpaceOnUse">
<stop stop-color="#FF8A78"/>
<stop offset="1" stop-color="#FFA799"/>
</linearGradient>
<linearGradient id="paint18_linear_0_1" x1="517.675" y1="248.537" x2="517.209" y2="176.423" gradientUnits="userSpaceOnUse">
<stop stop-color="#965CF2"/>
<stop offset="1" stop-color="#FF8ADC"/>
</linearGradient>
<linearGradient id="paint19_linear_0_1" x1="566.961" y1="232.024" x2="550.744" y2="176.629" gradientUnits="userSpaceOnUse">
<stop stop-color="#965CF2"/>
<stop offset="1" stop-color="#FF8ADC"/>
</linearGradient>
<linearGradient id="paint20_linear_0_1" x1="521.36" y1="169.833" x2="525.646" y2="175.423" gradientUnits="userSpaceOnUse">
<stop stop-color="#FF8A78"/>
<stop offset="1" stop-color="#FFA799"/>
</linearGradient>
<linearGradient id="paint21_linear_0_1" x1="587.633" y1="559.548" x2="508.931" y2="227.024" gradientUnits="userSpaceOnUse">
<stop stop-color="#965CF2"/>
<stop offset="1" stop-color="#FF8ADC"/>
</linearGradient>
<linearGradient id="paint22_linear_0_1" x1="593.65" y1="322.981" x2="564.521" y2="367.463" gradientUnits="userSpaceOnUse">
<stop stop-color="#6D6AFE"/>
<stop offset="1" stop-color="#3FB0F7"/>
</linearGradient>
<linearGradient id="paint23_linear_0_1" x1="490.543" y1="377.034" x2="483.735" y2="387.38" gradientUnits="userSpaceOnUse">
<stop stop-color="#6D6AFE"/>
<stop offset="1" stop-color="#3FB0F7"/>
</linearGradient>
<linearGradient id="paint24_linear_0_1" x1="496.657" y1="376.394" x2="474.876" y2="394.136" gradientUnits="userSpaceOnUse">
<stop stop-color="#6D6AFE"/>
<stop offset="1" stop-color="#3FB0F7"/>
</linearGradient>
<linearGradient id="paint25_linear_0_1" x1="809.606" y1="369.516" x2="779.847" y2="476.062" gradientUnits="userSpaceOnUse">
<stop stop-color="#6D6AFE"/>
<stop offset="1" stop-color="#3FB0F7"/>
</linearGradient>
<linearGradient id="paint26_linear_0_1" x1="783.691" y1="420.938" x2="797.37" y2="375.757" gradientUnits="userSpaceOnUse">
<stop stop-color="#965CF2"/>
<stop offset="1" stop-color="#FF8ADC"/>
</linearGradient>
<linearGradient id="paint27_linear_0_1" x1="781.226" y1="418.832" x2="793.97" y2="395.52" gradientUnits="userSpaceOnUse">
<stop stop-color="#6D6AFE"/>
<stop offset="1" stop-color="#3FB0F7"/>
</linearGradient>
<linearGradient id="paint28_linear_0_1" x1="530.336" y1="288.222" x2="527.182" y2="286.657" gradientUnits="userSpaceOnUse">
<stop stop-color="#FF8A78"/>
<stop offset="1" stop-color="#FFA799"/>
</linearGradient>
<linearGradient id="paint29_linear_0_1" x1="549.901" y1="258.397" x2="543.929" y2="189.456" gradientUnits="userSpaceOnUse">
<stop stop-color="#965CF2"/>
<stop offset="1" stop-color="#FF8ADC"/>
</linearGradient>
<linearGradient id="paint30_linear_0_1" x1="465.624" y1="671.865" x2="444.747" y2="779.117" gradientUnits="userSpaceOnUse">
<stop stop-color="#40457F"/>
<stop offset="1" stop-color="#1E2353"/>
</linearGradient>
<linearGradient id="paint31_linear_0_1" x1="470.893" y1="808.287" x2="462.746" y2="820.847" gradientUnits="userSpaceOnUse">
<stop stop-color="#3773B9"/>
<stop offset="1" stop-color="#003C76"/>
</linearGradient>
<linearGradient id="paint32_linear_0_1" x1="486.963" y1="683.907" x2="412.727" y2="792.65" gradientUnits="userSpaceOnUse">
<stop stop-color="#40457F"/>
<stop offset="1" stop-color="#1E2353"/>
</linearGradient>
<linearGradient id="paint33_linear_0_1" x1="424.85" y1="832.777" x2="411.39" y2="836.475" gradientUnits="userSpaceOnUse">
<stop stop-color="#3773B9"/>
<stop offset="1" stop-color="#003C76"/>
</linearGradient>
<linearGradient id="paint34_linear_0_1" x1="509.911" y1="433.624" x2="525.496" y2="409.705" gradientUnits="userSpaceOnUse">
<stop stop-color="#FF8A78"/>
<stop offset="1" stop-color="#FFA799"/>
</linearGradient>
<linearGradient id="paint35_linear_0_1" x1="474.1" y1="490.814" x2="491.846" y2="526.584" gradientUnits="userSpaceOnUse">
<stop stop-color="#A77EF7"/>
<stop offset="1" stop-color="#5E65D6"/>
</linearGradient>
<linearGradient id="paint36_linear_0_1" x1="470.224" y1="547.058" x2="459.982" y2="643.499" gradientUnits="userSpaceOnUse">
<stop stop-color="#A77EF7"/>
<stop offset="1" stop-color="#5E65D6"/>
</linearGradient>
<linearGradient id="paint37_linear_0_1" x1="470.841" y1="519.021" x2="467.594" y2="527.78" gradientUnits="userSpaceOnUse">
<stop stop-color="#FF8A78"/>
<stop offset="1" stop-color="#FFA799"/>
</linearGradient>
<linearGradient id="paint38_linear_0_1" x1="483.286" y1="494.957" x2="478.454" y2="504.922" gradientUnits="userSpaceOnUse">
<stop stop-color="#FFB89E"/>
<stop offset="1" stop-color="#FFA799"/>
</linearGradient>
<linearGradient id="paint39_linear_0_1" x1="471.807" y1="471.399" x2="448.758" y2="485.58" gradientUnits="userSpaceOnUse">
<stop stop-color="#8A4791"/>
<stop offset="1" stop-color="#562E65"/>
</linearGradient>
<linearGradient id="paint40_linear_0_1" x1="593.072" y1="528.898" x2="607.681" y2="508.174" gradientUnits="userSpaceOnUse">
<stop stop-color="#FF8A78"/>
<stop offset="1" stop-color="#FFA799"/>
</linearGradient>
<linearGradient id="paint41_linear_0_1" x1="543.15" y1="536.214" x2="547.358" y2="627.967" gradientUnits="userSpaceOnUse">
<stop stop-color="#A77EF7"/>
<stop offset="1" stop-color="#5E65D6"/>
</linearGradient>
<linearGradient id="paint42_linear_0_1" x1="44.2341" y1="208.185" x2="62.4737" y2="168.642" gradientUnits="userSpaceOnUse">
<stop stop-color="#6D6AFE"/>
<stop offset="1" stop-color="#3FB0F7"/>
</linearGradient>
<linearGradient id="paint43_linear_0_1" x1="113.59" y1="780.681" x2="130.703" y2="733.597" gradientUnits="userSpaceOnUse">
<stop stop-color="#965CF2"/>
<stop offset="1" stop-color="#FF8ADC"/>
</linearGradient>
<clipPath id="clip0_0_1">
<rect width="960.382" height="852" fill="white" transform="translate(10 124)"/>
</clipPath>
</defs>
</svg>
