<svg width="216" height="77" viewBox="0 0 216 77" fill="none" xmlns="http://www.w3.org/2000/svg">
<path d="M34.742 51V41.877H37.804L38.262 38.322H34.742V36.052C34.742 35.022 35.027 34.321 36.504 34.321L38.386 34.32V31.14C37.475 31.044 36.559 30.997 35.643 31C32.929 31 31.07 32.657 31.07 35.7V38.322H28V41.877H31.07V51H34.742Z" fill="#ffff"/>
<path d="M112 34.157C111.173 34.517 110.299 34.755 109.404 34.864C110.348 34.297 111.055 33.406 111.395 32.354C110.508 32.885 109.537 33.259 108.524 33.46C107.847 32.722 106.945 32.231 105.961 32.064C104.976 31.896 103.964 32.062 103.083 32.535C102.202 33.008 101.503 33.761 101.094 34.677C100.685 35.593 100.59 36.619 100.824 37.595C99.03 37.504 97.276 37.034 95.675 36.217C94.073 35.4 92.661 34.253 91.529 32.852C91.132 33.549 90.923 34.338 90.924 35.14C90.923 35.886 91.105 36.62 91.454 37.278C91.803 37.936 92.309 38.497 92.926 38.91C92.209 38.891 91.507 38.697 90.88 38.347V38.402C90.885 39.447 91.25 40.457 91.911 41.263C92.572 42.069 93.491 42.62 94.51 42.824C94.118 42.944 93.71 43.007 93.3 43.012C93.016 43.009 92.733 42.983 92.453 42.935C92.743 43.833 93.305 44.619 94.06 45.181C94.815 45.744 95.726 46.056 96.666 46.075C95.079 47.33 93.119 48.015 91.1 48.02C90.732 48.022 90.365 47.999 90 47.954C92.062 49.292 94.465 50.002 96.919 49.999C98.613 50.017 100.293 49.695 101.861 49.053C103.43 48.411 104.856 47.461 106.055 46.259C107.254 45.056 108.203 43.626 108.846 42.051C109.489 40.476 109.813 38.789 109.8 37.086C109.8 36.898 109.8 36.699 109.8 36.5C110.663 35.853 111.408 35.06 112 34.157Z" fill="#ffff"/>
<path d="M189.994 38.344C190.052 36.678 189.683 35.025 188.919 33.538C188.401 32.928 187.682 32.516 186.888 32.374C183.601 32.081 180.302 31.96 177.002 32.014C173.715 31.958 170.427 32.074 167.152 32.363C166.505 32.479 165.905 32.778 165.428 33.224C164.365 34.19 164.247 35.842 164.129 37.238C163.957 39.749 163.957 42.268 164.129 44.779C164.163 45.565 164.281 46.345 164.483 47.106C164.625 47.694 164.913 48.237 165.321 48.688C165.802 49.158 166.416 49.474 167.081 49.596C169.627 49.906 172.193 50.034 174.758 49.98C178.892 50.038 182.518 49.98 186.805 49.654C187.487 49.54 188.118 49.223 188.612 48.747C188.943 48.421 189.19 48.022 189.333 47.583C189.755 46.306 189.962 44.97 189.947 43.627C189.994 42.975 189.994 39.042 189.994 38.344ZM174.333 44.325V37.122L181.325 40.741C179.364 41.811 176.778 43.022 174.333 44.325Z" fill="#ffff"/>
</svg>
